# Blender 5.1.1
# www.blender.org
mtllib DDstage.mtl
o Cube.001
v 20.000000 -0.000000 -38.175804
v 20.000000 -0.602477 -38.175804
v 20.000000 0.000000 5.824196
v 20.000000 -0.602477 5.824196
v -20.000000 -0.000000 -38.175804
v -20.000000 -0.602477 -38.175804
v -20.000000 0.000000 5.824196
v -20.000000 -0.602477 5.824196
vn -0.0000 1.0000 -0.0000
vn -0.0000 -0.0000 1.0000
vn -1.0000 -0.0000 -0.0000
vn -0.0000 -1.0000 -0.0000
vn 1.0000 -0.0000 -0.0000
vn -0.0000 -0.0000 -1.0000
vt 0.045455 0.000000
vt 0.954545 1.000000
vt 0.954545 0.000000
vt 0.954545 0.506846
vt 0.045455 0.493154
vt 0.954545 0.493154
vt 0.506846 1.000000
vt 0.493154 0.000000
vt 0.493154 1.000000
vt 0.045455 1.000000
vt 0.506846 0.000000
vt 0.045455 0.506846
vt 0.954545 0.493154
vt 0.045455 0.493154
vt 0.045455 0.506846
vt 0.954545 0.506846
s 1
usemtl Material.002
f 5/1/1 3/2/1 1/3/1
f 3/4/2 8/5/2 4/6/2
f 7/7/3 6/8/3 8/9/3
f 2/3/4 8/10/4 6/1/4
f 1/11/5 4/9/5 2/8/5
f 5/12/6 2/13/6 6/14/6
f 5/1/1 7/10/1 3/2/1
f 3/4/2 7/15/2 8/5/2
f 7/7/3 5/11/3 6/8/3
f 2/3/4 4/2/4 8/10/4
f 1/11/5 3/7/5 4/9/5
f 5/12/6 1/16/6 2/13/6
o Cube.005
v 20.130306 8.148051 6.897593
v 20.130306 -0.602477 6.897593
v -19.951839 8.148052 6.897593
v -19.951839 -0.602476 6.897593
v 20.130306 8.148051 5.856036
v 20.130306 -0.602477 5.856036
v -19.951839 8.148052 5.856036
v -19.951839 -0.602476 5.856036
vn -0.0000 1.0000 -0.0000
vn -1.0000 -0.0000 -0.0000
vn -0.0000 -0.0000 -1.0000
vn -0.0000 -1.0000 -0.0000
vn -0.0000 -0.0000 1.0000
vn 1.0000 -0.0000 -0.0000
vt -0.020779 -19.541073
vt 1.020779 20.541073
vt 1.020778 -19.541073
vt 1.020779 4.875263
vt -0.020778 -3.875265
vt 1.020779 -3.875265
vt 4.875263 20.541073
vt -3.875263 -19.541073
vt -3.875265 20.541073
vt -0.020778 20.541073
vt 4.875265 -19.541073
vt -0.020779 4.875265
vt 1.020778 -3.875263
vt -0.020779 -3.875263
vt -0.020778 4.875263
vt 1.020778 4.875265
s 1
usemtl Material.007
f 13/17/7 11/18/7 9/19/7
f 11/20/8 16/21/8 12/22/8
f 15/23/9 14/24/9 16/25/9
f 10/19/10 16/26/10 14/17/10
f 9/27/11 12/25/11 10/24/11
f 13/28/12 10/29/12 14/30/12
f 13/17/7 15/26/7 11/18/7
f 11/20/8 15/31/8 16/21/8
f 15/23/9 13/27/9 14/24/9
f 10/19/10 12/18/10 16/26/10
f 9/27/11 11/23/11 12/25/11
f 13/28/12 9/32/12 10/29/12
o Cube.002
v 20.130306 8.148051 -38.102406
v 20.130306 -0.602477 -38.102406
v -19.951839 8.148052 -38.102406
v -19.951839 -0.602476 -38.102406
v 20.130306 8.148051 -39.143963
v 20.130306 -0.602477 -39.143963
v -19.951839 8.148052 -39.143963
v -19.951839 -0.602476 -39.143963
vn -0.0000 1.0000 -0.0000
vn -1.0000 -0.0000 -0.0000
vn -0.0000 -0.0000 -1.0000
vn -0.0000 -1.0000 -0.0000
vn -0.0000 -0.0000 1.0000
vn 1.0000 -0.0000 -0.0000
vt -0.020779 -19.541073
vt 1.020779 20.541073
vt 1.020778 -19.541073
vt 1.020779 4.875263
vt -0.020778 -3.875265
vt 1.020779 -3.875265
vt 4.875263 20.541073
vt -3.875263 -19.541073
vt -3.875265 20.541073
vt -0.020778 20.541073
vt 4.875265 -19.541073
vt -0.020779 4.875265
vt 1.020778 -3.875263
vt -0.020779 -3.875263
vt -0.020778 4.875263
vt 1.020778 4.875265
s 1
usemtl Material.007
f 21/33/13 19/34/13 17/35/13
f 19/36/14 24/37/14 20/38/14
f 23/39/15 22/40/15 24/41/15
f 18/35/16 24/42/16 22/33/16
f 17/43/17 20/41/17 18/40/17
f 21/44/18 18/45/18 22/46/18
f 21/33/13 23/42/13 19/34/13
f 19/36/14 23/47/14 24/37/14
f 23/39/15 21/43/15 22/40/15
f 18/35/16 20/34/16 24/42/16
f 17/43/17 19/39/17 20/41/17
f 21/44/18 17/48/18 18/45/18
o Cube.003
v -19.966915 8.148051 -38.322090
v -19.966915 -0.602477 -38.322090
v -19.966915 8.148052 6.760054
v -19.966915 -0.602476 6.760054
v -21.008472 8.148051 -38.322090
v -21.008472 -0.602477 -38.322090
v -21.008472 8.148052 6.760054
v -21.008472 -0.602476 6.760054
vn -0.0000 1.0000 -0.0000
vn -0.0000 -0.0000 1.0000
vn -1.0000 -0.0000 -0.0000
vn -0.0000 -1.0000 -0.0000
vn 1.0000 -0.0000 -0.0000
vn -0.0000 -0.0000 -1.0000
vt -0.020779 -22.041073
vt 1.020779 23.041073
vt 1.020778 -22.041073
vt 1.020779 4.875263
vt -0.020778 -3.875265
vt 1.020779 -3.875265
vt 4.875263 23.041073
vt -3.875263 -22.041073
vt -3.875265 23.041073
vt -0.020778 23.041073
vt 4.875265 -22.041073
vt -0.020779 4.875265
vt 1.020778 -3.875263
vt -0.020779 -3.875263
vt -0.020778 4.875263
vt 1.020778 4.875265
s 1
usemtl Material.007
f 29/49/19 27/50/19 25/51/19
f 27/52/20 32/53/20 28/54/20
f 31/55/21 30/56/21 32/57/21
f 26/51/22 32/58/22 30/49/22
f 25/59/23 28/57/23 26/56/23
f 29/60/24 26/61/24 30/62/24
f 29/49/19 31/58/19 27/50/19
f 27/52/20 31/63/20 32/53/20
f 31/55/21 29/59/21 30/56/21
f 26/51/22 28/50/22 32/58/22
f 25/59/23 27/55/23 28/57/23
f 29/60/24 25/64/24 26/61/24
o Cube.004
v 21.033085 8.148051 -38.322090
v 21.033085 -0.602477 -38.322090
v 21.033085 8.148052 6.760054
v 21.033085 -0.602476 6.760054
v 19.991528 8.148051 -38.322090
v 19.991528 -0.602477 -38.322090
v 19.991528 8.148052 6.760054
v 19.991528 -0.602476 6.760054
vn -0.0000 1.0000 -0.0000
vn -0.0000 -0.0000 1.0000
vn -1.0000 -0.0000 -0.0000
vn -0.0000 -1.0000 -0.0000
vn 1.0000 -0.0000 -0.0000
vn -0.0000 -0.0000 -1.0000
vt -0.020779 -22.041073
vt 1.020779 23.041073
vt 1.020778 -22.041073
vt 1.020779 4.875263
vt -0.020778 -3.875265
vt 1.020779 -3.875265
vt 4.875263 23.041073
vt -3.875263 -22.041073
vt -3.875265 23.041073
vt -0.020778 23.041073
vt 4.875265 -22.041073
vt -0.020779 4.875265
vt 1.020778 -3.875263
vt -0.020779 -3.875263
vt -0.020778 4.875263
vt 1.020778 4.875265
s 1
usemtl Material.007
f 37/65/25 35/66/25 33/67/25
f 35/68/26 40/69/26 36/70/26
f 39/71/27 38/72/27 40/73/27
f 34/67/28 40/74/28 38/65/28
f 33/75/29 36/73/29 34/72/29
f 37/76/30 34/77/30 38/78/30
f 37/65/25 39/74/25 35/66/25
f 35/68/26 39/79/26 40/69/26
f 39/71/27 37/75/27 38/72/27
f 34/67/28 36/66/28 40/74/28
f 33/75/29 35/71/29 36/73/29
f 37/76/30 33/80/30 34/77/30
