# Blender 5.1.1
# www.blender.org
mtllib Titlestage.mtl
o Cube.001
v 4.457049 -0.108221 -5.061128
v 4.457049 -14.494200 -5.061126
v 4.457049 -0.108276 18.623447
v 4.457049 -14.494256 18.623447
v -4.331236 -0.108221 -5.061128
v -4.331236 -14.494200 -5.061126
v -4.331236 -0.108276 18.623447
v -4.331236 -14.494256 18.623447
vn -0.0000 1.0000 -0.0000
vn -0.0000 -0.0000 1.0000
vn -1.0000 -0.0000 -0.0000
vn -0.0000 -1.0000 -0.0000
vn 1.0000 -0.0000 -0.0000
vn -0.0000 -0.0000 -1.0000
vt 0.045455 0.000000
vt 0.954545 1.000000
vt 0.954545 0.000000
vt 0.954545 0.506846
vt 0.045455 0.493154
vt 0.954545 0.493154
vt 0.506846 1.000000
vt 0.493154 0.000000
vt 0.493154 1.000000
vt 0.045455 1.000000
vt 0.506846 0.000000
vt 0.045455 0.506846
vt 0.954545 0.493154
vt 0.045455 0.493154
vt 0.045455 0.506846
vt 0.954545 0.506846
s 1
usemtl Material.002
f 5/1/1 3/2/1 1/3/1
f 3/4/2 8/5/2 4/6/2
f 7/7/3 6/8/3 8/9/3
f 2/3/4 8/10/4 6/1/4
f 1/11/5 4/9/5 2/8/5
f 5/12/6 2/13/6 6/14/6
f 5/1/1 7/10/1 3/2/1
f 3/4/2 7/15/2 8/5/2
f 7/7/3 5/11/3 6/8/3
f 2/3/4 4/2/4 8/10/4
f 1/11/5 3/7/5 4/9/5
f 5/12/6 1/16/6 2/13/6
o Cube.002
v 5.393421 -0.108220 -4.991927
v 5.393421 -14.494200 -4.991926
v 5.393421 -0.108277 4.173830
v 5.393421 -14.494257 4.173831
v 4.453235 -0.108220 -4.991927
v 4.453235 -14.494200 -4.991926
v 4.453235 -0.108277 4.173830
v 4.453235 -14.494257 4.173831
vn -0.0000 1.0000 -0.0000
vn -0.0000 -0.0000 1.0000
vn -1.0000 -0.0000 -0.0000
vn -0.0000 -1.0000 -0.0000
vn 1.0000 -0.0000 -0.0000
vn -0.0000 -0.0000 -1.0000
vt 0.045455 0.000000
vt 0.954545 1.000000
vt 0.954545 0.000000
vt 0.954545 0.506846
vt 0.045455 0.493154
vt 0.954545 0.493154
vt 0.506846 1.000000
vt 0.493154 0.000000
vt 0.493154 1.000000
vt 0.045455 1.000000
vt 0.506846 0.000000
vt 0.045455 0.506846
vt 0.954545 0.493154
vt 0.045455 0.493154
vt 0.045455 0.506846
vt 0.954545 0.506846
s 1
usemtl Material.002
f 13/17/7 11/18/7 9/19/7
f 11/20/8 16/21/8 12/22/8
f 15/23/9 14/24/9 16/25/9
f 10/19/10 16/26/10 14/17/10
f 9/27/11 12/25/11 10/24/11
f 13/28/12 10/29/12 14/30/12
f 13/17/7 15/26/7 11/18/7
f 11/20/8 15/31/8 16/21/8
f 15/23/9 13/27/9 14/24/9
f 10/19/10 12/18/10 16/26/10
f 9/27/11 11/23/11 12/25/11
f 13/28/12 9/32/12 10/29/12
o Cube.003
v 6.393421 -0.108220 -1.520740
v 6.393421 -14.494199 -1.520739
v 6.393421 -0.108277 3.801987
v 6.393421 -14.494257 3.801988
v 5.453235 -0.108220 -1.520740
v 5.453235 -14.494199 -1.520739
v 5.453235 -0.108277 3.801987
v 5.453235 -14.494257 3.801988
vn -0.0000 1.0000 -0.0000
vn -0.0000 -0.0000 1.0000
vn -1.0000 -0.0000 -0.0000
vn -0.0000 -1.0000 -0.0000
vn 1.0000 -0.0000 -0.0000
vn -0.0000 -0.0000 -1.0000
vt 0.045455 0.000000
vt 0.954545 1.000000
vt 0.954545 0.000000
vt 0.954545 0.506846
vt 0.045455 0.493154
vt 0.954545 0.493154
vt 0.506846 1.000000
vt 0.493154 0.000000
vt 0.493154 1.000000
vt 0.045455 1.000000
vt 0.506846 0.000000
vt 0.045455 0.506846
vt 0.954545 0.493154
vt 0.045455 0.493154
vt 0.045455 0.506846
vt 0.954545 0.506846
s 1
usemtl Material.002
f 21/33/13 19/34/13 17/35/13
f 19/36/14 24/37/14 20/38/14
f 23/39/15 22/40/15 24/41/15
f 18/35/16 24/42/16 22/33/16
f 17/43/17 20/41/17 18/40/17
f 21/44/18 18/45/18 22/46/18
f 21/33/13 23/42/13 19/34/13
f 19/36/14 23/47/14 24/37/14
f 23/39/15 21/43/15 22/40/15
f 18/35/16 20/34/16 24/42/16
f 17/43/17 19/39/17 20/41/17
f 21/44/18 17/48/18 18/45/18
o Cube.004
v 6.393421 -0.108220 -2.736712
v 6.393421 -14.494199 -2.736711
v 6.393421 -0.108277 -1.738483
v 6.393421 -14.494257 -1.738482
v 5.453235 -0.108220 -2.736712
v 5.453235 -14.494199 -2.736711
v 5.453235 -0.108277 -1.738483
v 5.453235 -14.494257 -1.738482
vn -0.0000 1.0000 0.0001
vn -0.0000 -0.0000 1.0000
vn -1.0000 -0.0000 -0.0000
vn -0.0000 -1.0000 -0.0001
vn 1.0000 -0.0000 -0.0000
vn -0.0000 -0.0000 -1.0000
vt 0.045455 0.000000
vt 0.954545 1.000000
vt 0.954545 0.000000
vt 0.954545 0.506846
vt 0.045455 0.493154
vt 0.954545 0.493154
vt 0.506846 1.000000
vt 0.493154 0.000000
vt 0.493154 1.000000
vt 0.045455 1.000000
vt 0.506846 0.000000
vt 0.045455 0.506846
vt 0.954545 0.493154
vt 0.045455 0.493154
vt 0.045455 0.506846
vt 0.954545 0.506846
s 1
usemtl Material.002
f 29/49/19 27/50/19 25/51/19
f 27/52/20 32/53/20 28/54/20
f 31/55/21 30/56/21 32/57/21
f 26/51/22 32/58/22 30/49/22
f 25/59/23 28/57/23 26/56/23
f 29/60/24 26/61/24 30/62/24
f 29/49/19 31/58/19 27/50/19
f 27/52/20 31/63/20 32/53/20
f 31/55/21 29/59/21 30/56/21
f 26/51/22 28/50/22 32/58/22
f 25/59/23 27/55/23 28/57/23
f 29/60/24 25/64/24 26/61/24
o Cube.005
v 3.574934 -0.108220 -6.131982
v 3.574934 -14.494199 -6.131980
v 3.574934 -0.108277 -5.072328
v 3.574934 -14.494257 -5.072327
v -3.684240 -0.108220 -6.131982
v -3.684240 -14.494199 -6.131980
v -3.684240 -0.108277 -5.072328
v -3.684240 -14.494257 -5.072327
vn -0.0000 1.0000 0.0001
vn -0.0000 -0.0000 1.0000
vn -1.0000 -0.0000 -0.0000
vn -0.0000 -1.0000 -0.0001
vn 1.0000 -0.0000 -0.0000
vn -0.0000 -0.0000 -1.0000
vt 0.045455 0.000000
vt 0.954545 1.000000
vt 0.954545 0.000000
vt 0.954545 0.506846
vt 0.045455 0.493154
vt 0.954545 0.493154
vt 0.506846 1.000000
vt 0.493154 0.000000
vt 0.493154 1.000000
vt 0.045455 1.000000
vt 0.506846 0.000000
vt 0.045455 0.506846
vt 0.954545 0.493154
vt 0.045455 0.493154
vt 0.045455 0.506846
vt 0.954545 0.506846
s 1
usemtl Material.002
f 37/65/25 35/66/25 33/67/25
f 35/68/26 40/69/26 36/70/26
f 39/71/27 38/72/27 40/73/27
f 34/67/28 40/74/28 38/65/28
f 33/75/29 36/73/29 34/72/29
f 37/76/30 34/77/30 38/78/30
f 37/65/25 39/74/25 35/66/25
f 35/68/26 39/79/26 40/69/26
f 39/71/27 37/75/27 38/72/27
f 34/67/28 36/66/28 40/74/28
f 33/75/29 35/71/29 36/73/29
f 37/76/30 33/80/30 34/77/30
o Cube.006
v 4.576115 -0.108220 -6.065429
v 4.576115 -14.494199 -6.065428
v 4.576115 -0.108277 -5.067200
v 4.576115 -14.494257 -5.067199
v 3.635928 -0.108220 -6.065429
v 3.635928 -14.494199 -6.065428
v 3.635928 -0.108277 -5.067200
v 3.635928 -14.494257 -5.067199
vn -0.0000 1.0000 0.0001
vn -0.0000 -0.0000 1.0000
vn -1.0000 -0.0000 -0.0000
vn -0.0000 -1.0000 -0.0001
vn 1.0000 -0.0000 -0.0000
vn -0.0000 -0.0000 -1.0000
vt 0.045455 0.000000
vt 0.954545 1.000000
vt 0.954545 0.000000
vt 0.954545 0.506846
vt 0.045455 0.493154
vt 0.954545 0.493154
vt 0.506846 1.000000
vt 0.493154 0.000000
vt 0.493154 1.000000
vt 0.045455 1.000000
vt 0.506846 0.000000
vt 0.045455 0.506846
vt 0.954545 0.493154
vt 0.045455 0.493154
vt 0.045455 0.506846
vt 0.954545 0.506846
s 1
usemtl Material.002
f 45/81/31 43/82/31 41/83/31
f 43/84/32 48/85/32 44/86/32
f 47/87/33 46/88/33 48/89/33
f 42/83/34 48/90/34 46/81/34
f 41/91/35 44/89/35 42/88/35
f 45/92/36 42/93/36 46/94/36
f 45/81/31 47/90/31 43/82/31
f 43/84/32 47/95/32 48/85/32
f 47/87/33 45/91/33 46/88/33
f 42/83/34 44/82/34 48/90/34
f 41/91/35 43/87/35 44/89/35
f 45/92/36 41/96/36 42/93/36
o Cube.007
v 1.673504 -0.108220 -7.071344
v 1.673504 -14.494199 -7.071343
v 1.673504 -0.108277 -6.073115
v 1.673504 -14.494257 -6.073114
v -1.264520 -0.108220 -7.071344
v -1.264520 -14.494199 -7.071343
v -1.264520 -0.108277 -6.073115
v -1.264520 -14.494257 -6.073114
vn -0.0000 1.0000 0.0001
vn -0.0000 -0.0000 1.0000
vn -1.0000 -0.0000 -0.0000
vn -0.0000 -1.0000 -0.0001
vn 1.0000 -0.0000 -0.0000
vn -0.0000 -0.0000 -1.0000
vt 0.045455 0.000000
vt 0.954545 1.000000
vt 0.954545 0.000000
vt 0.954545 0.506846
vt 0.045455 0.493154
vt 0.954545 0.493154
vt 0.506846 1.000000
vt 0.493154 0.000000
vt 0.493154 1.000000
vt 0.045455 1.000000
vt 0.506846 0.000000
vt 0.045455 0.506846
vt 0.954545 0.493154
vt 0.045455 0.493154
vt 0.045455 0.506846
vt 0.954545 0.506846
s 1
usemtl Material.002
f 53/97/37 51/98/37 49/99/37
f 51/100/38 56/101/38 52/102/38
f 55/103/39 54/104/39 56/105/39
f 50/99/40 56/106/40 54/97/40
f 49/107/41 52/105/41 50/104/41
f 53/108/42 50/109/42 54/110/42
f 53/97/37 55/106/37 51/98/37
f 51/100/38 55/111/38 56/101/38
f 55/103/39 53/107/39 54/104/39
f 50/99/40 52/98/40 56/106/40
f 49/107/41 51/103/41 52/105/41
f 53/108/42 49/112/42 50/109/42
o Cube.008
v 6.099660 -0.108220 -7.065429
v 6.099660 -14.494199 -7.065428
v 6.099660 -0.108277 -6.067200
v 6.099660 -14.494257 -6.067199
v 2.112382 -0.108220 -7.065429
v 2.112382 -14.494199 -7.065428
v 2.112382 -0.108277 -6.067200
v 2.112382 -14.494257 -6.067199
vn -0.0000 1.0000 0.0001
vn -0.0000 -0.0000 1.0000
vn -1.0000 -0.0000 -0.0000
vn -0.0000 -1.0000 -0.0001
vn 1.0000 -0.0000 -0.0000
vn -0.0000 -0.0000 -1.0000
vt 0.045455 0.000000
vt 0.954545 1.000000
vt 0.954545 0.000000
vt 0.954545 0.506846
vt 0.045455 0.493154
vt 0.954545 0.493154
vt 0.506846 1.000000
vt 0.493154 0.000000
vt 0.493154 1.000000
vt 0.045455 1.000000
vt 0.506846 0.000000
vt 0.045455 0.506846
vt 0.954545 0.493154
vt 0.045455 0.493154
vt 0.045455 0.506846
vt 0.954545 0.506846
s 1
usemtl Material.002
f 61/113/43 59/114/43 57/115/43
f 59/116/44 64/117/44 60/118/44
f 63/119/45 62/120/45 64/121/45
f 58/115/46 64/122/46 62/113/46
f 57/123/47 60/121/47 58/120/47
f 61/124/48 58/125/48 62/126/48
f 61/113/43 63/122/43 59/114/43
f 59/116/44 63/127/44 64/117/44
f 63/119/45 61/123/45 62/120/45
f 58/115/46 60/114/46 64/122/46
f 57/123/47 59/119/47 60/121/47
f 61/124/48 57/128/48 58/125/48
o Cube.009
v -2.788551 -0.108220 -7.071344
v -2.788551 -14.494199 -7.071343
v -2.788551 -0.108277 -6.073115
v -2.788551 -14.494257 -6.073114
v -5.726575 -0.108220 -7.071344
v -5.726575 -14.494199 -7.071343
v -5.726575 -0.108277 -6.073115
v -5.726575 -14.494257 -6.073114
vn -0.0000 1.0000 0.0001
vn -0.0000 -0.0000 1.0000
vn -1.0000 -0.0000 -0.0000
vn -0.0000 -1.0000 -0.0001
vn 1.0000 -0.0000 -0.0000
vn -0.0000 -0.0000 -1.0000
vt 0.045455 0.000000
vt 0.954545 1.000000
vt 0.954545 0.000000
vt 0.954545 0.506846
vt 0.045455 0.493154
vt 0.954545 0.493154
vt 0.506846 1.000000
vt 0.493154 0.000000
vt 0.493154 1.000000
vt 0.045455 1.000000
vt 0.506846 0.000000
vt 0.045455 0.506846
vt 0.954545 0.493154
vt 0.045455 0.493154
vt 0.045455 0.506846
vt 0.954545 0.506846
s 1
usemtl Material.002
f 69/129/49 67/130/49 65/131/49
f 67/132/50 72/133/50 68/134/50
f 71/135/51 70/136/51 72/137/51
f 66/131/52 72/138/52 70/129/52
f 65/139/53 68/137/53 66/136/53
f 69/140/54 66/141/54 70/142/54
f 69/129/49 71/138/49 67/130/49
f 67/132/50 71/143/50 72/133/50
f 71/135/51 69/139/51 70/136/51
f 66/131/52 68/130/52 72/138/52
f 65/139/53 67/135/53 68/137/53
f 69/140/54 65/144/54 66/141/54
o Cube.010
v 4.508430 -0.108220 -8.071344
v 4.508430 -14.494199 -8.071343
v 4.508430 -0.108277 -7.073115
v 4.508430 -14.494257 -7.073114
v -8.473591 -0.108220 -8.071344
v -8.473591 -14.494199 -8.071343
v -8.473591 -0.108277 -7.073115
v -8.473591 -14.494257 -7.073114
vn -0.0000 1.0000 0.0001
vn -0.0000 -0.0000 1.0000
vn -1.0000 -0.0000 -0.0000
vn -0.0000 -1.0000 -0.0001
vn 1.0000 -0.0000 -0.0000
vn -0.0000 -0.0000 -1.0000
vt 0.045455 0.000000
vt 0.954545 1.000000
vt 0.954545 0.000000
vt 0.954545 0.506846
vt 0.045455 0.493154
vt 0.954545 0.493154
vt 0.506846 1.000000
vt 0.493154 0.000000
vt 0.493154 1.000000
vt 0.045455 1.000000
vt 0.506846 0.000000
vt 0.045455 0.506846
vt 0.954545 0.493154
vt 0.045455 0.493154
vt 0.045455 0.506846
vt 0.954545 0.506846
s 1
usemtl Material.002
f 77/145/55 75/146/55 73/147/55
f 75/148/56 80/149/56 76/150/56
f 79/151/57 78/152/57 80/153/57
f 74/147/58 80/154/58 78/145/58
f 73/155/59 76/153/59 74/152/59
f 77/156/60 74/157/60 78/158/60
f 77/145/55 79/154/55 75/146/55
f 75/148/56 79/159/56 80/149/56
f 79/151/57 77/155/57 78/152/57
f 74/147/58 76/146/58 80/154/58
f 73/155/59 75/151/59 76/153/59
f 77/156/60 73/160/60 74/157/60
o Cube.011
v -4.352284 -0.108220 -4.991927
v -4.352284 -14.494200 -4.991926
v -4.352284 -0.108277 4.173830
v -4.352284 -14.494257 4.173831
v -5.292471 -0.108220 -4.991927
v -5.292471 -14.494200 -4.991926
v -5.292471 -0.108277 4.173830
v -5.292471 -14.494257 4.173831
vn -0.0000 1.0000 -0.0000
vn -0.0000 -0.0000 1.0000
vn -1.0000 -0.0000 -0.0000
vn -0.0000 -1.0000 -0.0000
vn 1.0000 -0.0000 -0.0000
vn -0.0000 -0.0000 -1.0000
vt 0.045455 0.000000
vt 0.954545 1.000000
vt 0.954545 0.000000
vt 0.954545 0.506846
vt 0.045455 0.493154
vt 0.954545 0.493154
vt 0.506846 1.000000
vt 0.493154 0.000000
vt 0.493154 1.000000
vt 0.045455 1.000000
vt 0.506846 0.000000
vt 0.045455 0.506846
vt 0.954545 0.493154
vt 0.045455 0.493154
vt 0.045455 0.506846
vt 0.954545 0.506846
s 1
usemtl Material.002
f 85/161/61 83/162/61 81/163/61
f 83/164/62 88/165/62 84/166/62
f 87/167/63 86/168/63 88/169/63
f 82/163/64 88/170/64 86/161/64
f 81/171/65 84/169/65 82/168/65
f 85/172/66 82/173/66 86/174/66
f 85/161/61 87/170/61 83/162/61
f 83/164/62 87/175/62 88/165/62
f 87/167/63 85/171/63 86/168/63
f 82/163/64 84/162/64 88/170/64
f 81/171/65 83/167/65 84/169/65
f 85/172/66 81/176/66 82/173/66
o Cube.012
v -5.352284 -0.108220 -3.863657
v -5.352284 -14.494200 -3.863656
v -5.352284 -0.108277 3.045559
v -5.352284 -14.494257 3.045560
v -6.292471 -0.108220 -3.863657
v -6.292471 -14.494200 -3.863656
v -6.292471 -0.108277 3.045559
v -6.292471 -14.494257 3.045560
vn -0.0000 1.0000 -0.0000
vn -0.0000 -0.0000 1.0000
vn -1.0000 -0.0000 -0.0000
vn -0.0000 -1.0000 -0.0000
vn 1.0000 -0.0000 -0.0000
vn -0.0000 -0.0000 -1.0000
vt 0.045455 0.000000
vt 0.954545 1.000000
vt 0.954545 0.000000
vt 0.954545 0.506846
vt 0.045455 0.493154
vt 0.954545 0.493154
vt 0.506846 1.000000
vt 0.493154 0.000000
vt 0.493154 1.000000
vt 0.045455 1.000000
vt 0.506846 0.000000
vt 0.045455 0.506846
vt 0.954545 0.493154
vt 0.045455 0.493154
vt 0.045455 0.506846
vt 0.954545 0.506846
s 1
usemtl Material.002
f 93/177/67 91/178/67 89/179/67
f 91/180/68 96/181/68 92/182/68
f 95/183/69 94/184/69 96/185/69
f 90/179/70 96/186/70 94/177/70
f 89/187/71 92/185/71 90/184/71
f 93/188/72 90/189/72 94/190/72
f 93/177/67 95/186/67 91/178/67
f 91/180/68 95/191/68 96/181/68
f 95/183/69 93/187/69 94/184/69
f 90/179/70 92/178/70 96/186/70
f 89/187/71 91/183/71 92/185/71
f 93/188/72 89/192/72 90/189/72
o Cube.013
v -4.352284 -0.108220 5.136343
v -4.352284 -14.494200 5.136344
v -4.352284 -0.108277 12.045559
v -4.352284 -14.494257 12.045561
v -5.292471 -0.108220 5.136343
v -5.292471 -14.494200 5.136344
v -5.292471 -0.108277 12.045559
v -5.292471 -14.494257 12.045561
vn -0.0000 1.0000 -0.0000
vn -0.0000 -0.0000 1.0000
vn -1.0000 -0.0000 -0.0000
vn -0.0000 -1.0000 -0.0000
vn 1.0000 -0.0000 -0.0000
vn -0.0000 -0.0000 -1.0000
vt 0.045455 0.000000
vt 0.954545 1.000000
vt 0.954545 0.000000
vt 0.954545 0.506846
vt 0.045455 0.493154
vt 0.954545 0.493154
vt 0.506846 1.000000
vt 0.493154 0.000000
vt 0.493154 1.000000
vt 0.045455 1.000000
vt 0.506846 0.000000
vt 0.045455 0.506846
vt 0.954545 0.493154
vt 0.045455 0.493154
vt 0.045455 0.506846
vt 0.954545 0.506846
s 1
usemtl Material.002
f 101/193/73 99/194/73 97/195/73
f 99/196/74 104/197/74 100/198/74
f 103/199/75 102/200/75 104/201/75
f 98/195/76 104/202/76 102/193/76
f 97/203/77 100/201/77 98/200/77
f 101/204/78 98/205/78 102/206/78
f 101/193/73 103/202/73 99/194/73
f 99/196/74 103/207/74 104/197/74
f 103/199/75 101/203/75 102/200/75
f 98/195/76 100/194/76 104/202/76
f 97/203/77 99/199/77 100/201/77
f 101/204/78 97/208/78 98/205/78
o Cube.014
v -6.352284 -0.108220 -4.636495
v -6.352284 -14.494199 -4.636494
v -6.352284 -0.108277 -2.923459
v -6.352284 -14.494257 -2.923458
v -7.292471 -0.108220 -4.636495
v -7.292471 -14.494199 -4.636494
v -7.292471 -0.108277 -2.923459
v -7.292471 -14.494257 -2.923458
vn -0.0000 1.0000 -0.0000
vn -0.0000 -0.0000 1.0000
vn -1.0000 -0.0000 -0.0000
vn -0.0000 -1.0000 -0.0000
vn 1.0000 -0.0000 -0.0000
vn -0.0000 -0.0000 -1.0000
vt 0.045455 0.000000
vt 0.954545 1.000000
vt 0.954545 0.000000
vt 0.954545 0.506846
vt 0.045455 0.493154
vt 0.954545 0.493154
vt 0.506846 1.000000
vt 0.493154 0.000000
vt 0.493154 1.000000
vt 0.045455 1.000000
vt 0.506846 0.000000
vt 0.045455 0.506846
vt 0.954545 0.493154
vt 0.045455 0.493154
vt 0.045455 0.506846
vt 0.954545 0.506846
s 1
usemtl Material.002
f 109/209/79 107/210/79 105/211/79
f 107/212/80 112/213/80 108/214/80
f 111/215/81 110/216/81 112/217/81
f 106/211/82 112/218/82 110/209/82
f 105/219/83 108/217/83 106/216/83
f 109/220/84 106/221/84 110/222/84
f 109/209/79 111/218/79 107/210/79
f 107/212/80 111/223/80 112/213/80
f 111/215/81 109/219/81 110/216/81
f 106/211/82 108/210/82 112/218/82
f 105/219/83 107/215/83 108/217/83
f 109/220/84 105/224/84 106/221/84
o Cube.015
v -6.352284 -0.108220 0.252084
v -6.352284 -14.494199 0.252085
v -6.352284 -0.108277 4.171566
v -6.352284 -14.494257 4.171567
v -7.292471 -0.108220 0.252084
v -7.292471 -14.494199 0.252085
v -7.292471 -0.108277 4.171566
v -7.292471 -14.494257 4.171567
vn -0.0000 1.0000 -0.0000
vn -0.0000 -0.0000 1.0000
vn -1.0000 -0.0000 -0.0000
vn -0.0000 -1.0000 -0.0000
vn 1.0000 -0.0000 -0.0000
vn -0.0000 -0.0000 -1.0000
vt 0.045455 0.000000
vt 0.954545 1.000000
vt 0.954545 0.000000
vt 0.954545 0.506846
vt 0.045455 0.493154
vt 0.954545 0.493154
vt 0.506846 1.000000
vt 0.493154 0.000000
vt 0.493154 1.000000
vt 0.045455 1.000000
vt 0.506846 0.000000
vt 0.045455 0.506846
vt 0.954545 0.493154
vt 0.045455 0.493154
vt 0.045455 0.506846
vt 0.954545 0.506846
s 1
usemtl Material.002
f 117/225/85 115/226/85 113/227/85
f 115/228/86 120/229/86 116/230/86
f 119/231/87 118/232/87 120/233/87
f 114/227/88 120/234/88 118/225/88
f 113/235/89 116/233/89 114/232/89
f 117/236/90 114/237/90 118/238/90
f 117/225/85 119/234/85 115/226/85
f 115/228/86 119/239/86 120/229/86
f 119/231/87 117/235/87 118/232/87
f 114/227/88 116/226/88 120/234/88
f 113/235/89 115/231/89 116/233/89
f 117/236/90 113/240/90 114/237/90
o Cube.016
v 5.556408 -0.108220 -9.071344
v 5.556408 -14.494199 -9.071343
v 5.556408 -0.108277 -8.073115
v 5.556408 -14.494257 -8.073114
v 2.618384 -0.108220 -9.071344
v 2.618384 -14.494199 -9.071343
v 2.618384 -0.108277 -8.073115
v 2.618384 -14.494257 -8.073114
vn -0.0000 1.0000 0.0001
vn -0.0000 -0.0000 1.0000
vn -1.0000 -0.0000 -0.0000
vn -0.0000 -1.0000 -0.0001
vn 1.0000 -0.0000 -0.0000
vn -0.0000 -0.0000 -1.0000
vt 0.045455 0.000000
vt 0.954545 1.000000
vt 0.954545 0.000000
vt 0.954545 0.506846
vt 0.045455 0.493154
vt 0.954545 0.493154
vt 0.506846 1.000000
vt 0.493154 0.000000
vt 0.493154 1.000000
vt 0.045455 1.000000
vt 0.506846 0.000000
vt 0.045455 0.506846
vt 0.954545 0.493154
vt 0.045455 0.493154
vt 0.045455 0.506846
vt 0.954545 0.506846
s 1
usemtl Material.002
f 125/241/91 123/242/91 121/243/91
f 123/244/92 128/245/92 124/246/92
f 127/247/93 126/248/93 128/249/93
f 122/243/94 128/250/94 126/241/94
f 121/251/95 124/249/95 122/248/95
f 125/252/96 122/253/96 126/254/96
f 125/241/91 127/250/91 123/242/91
f 123/244/92 127/255/92 128/245/92
f 127/247/93 125/251/93 126/248/93
f 122/243/94 124/242/94 128/250/94
f 121/251/95 123/247/95 124/249/95
f 125/252/96 121/256/96 122/253/96
o Cube.017
v -0.449233 -0.108220 -9.071344
v -0.449233 -14.494199 -9.071343
v -0.449233 -0.108277 -8.073115
v -0.449233 -14.494257 -8.073114
v -8.065892 -0.108220 -9.071344
v -8.065892 -14.494199 -9.071343
v -8.065892 -0.108277 -8.073115
v -8.065892 -14.494257 -8.073114
vn -0.0000 1.0000 0.0001
vn -0.0000 -0.0000 1.0000
vn -1.0000 -0.0000 -0.0000
vn -0.0000 -1.0000 -0.0001
vn 1.0000 -0.0000 -0.0000
vn -0.0000 -0.0000 -1.0000
vt 0.045455 0.000000
vt 0.954545 1.000000
vt 0.954545 0.000000
vt 0.954545 0.506846
vt 0.045455 0.493154
vt 0.954545 0.493154
vt 0.506846 1.000000
vt 0.493154 0.000000
vt 0.493154 1.000000
vt 0.045455 1.000000
vt 0.506846 0.000000
vt 0.045455 0.506846
vt 0.954545 0.493154
vt 0.045455 0.493154
vt 0.045455 0.506846
vt 0.954545 0.506846
s 1
usemtl Material.002
f 133/257/97 131/258/97 129/259/97
f 131/260/98 136/261/98 132/262/98
f 135/263/99 134/264/99 136/265/99
f 130/259/100 136/266/100 134/257/100
f 129/267/101 132/265/101 130/264/101
f 133/268/102 130/269/102 134/270/102
f 133/257/97 135/266/97 131/258/97
f 131/260/98 135/271/98 136/261/98
f 135/263/99 133/267/99 134/264/99
f 130/259/100 132/258/100 136/266/100
f 129/267/101 131/263/101 132/265/101
f 133/268/102 129/272/102 130/269/102
o Cube.018
v 3.825697 -0.108220 -10.071344
v 3.825697 -14.494199 -10.071343
v 3.825697 -0.108277 -9.073115
v 3.825697 -14.494257 -9.073114
v -3.416713 -0.108220 -10.071344
v -3.416713 -14.494199 -10.071343
v -3.416713 -0.108277 -9.073115
v -3.416713 -14.494257 -9.073114
vn -0.0000 1.0000 0.0001
vn -0.0000 -0.0000 1.0000
vn -1.0000 -0.0000 -0.0000
vn -0.0000 -1.0000 -0.0001
vn 1.0000 -0.0000 -0.0000
vn -0.0000 -0.0000 -1.0000
vt 0.045455 0.000000
vt 0.954545 1.000000
vt 0.954545 0.000000
vt 0.954545 0.506846
vt 0.045455 0.493154
vt 0.954545 0.493154
vt 0.506846 1.000000
vt 0.493154 0.000000
vt 0.493154 1.000000
vt 0.045455 1.000000
vt 0.506846 0.000000
vt 0.045455 0.506846
vt 0.954545 0.493154
vt 0.045455 0.493154
vt 0.045455 0.506846
vt 0.954545 0.506846
s 1
usemtl Material.002
f 141/273/103 139/274/103 137/275/103
f 139/276/104 144/277/104 140/278/104
f 143/279/105 142/280/105 144/281/105
f 138/275/106 144/282/106 142/273/106
f 137/283/107 140/281/107 138/280/107
f 141/284/108 138/285/108 142/286/108
f 141/273/103 143/282/103 139/274/103
f 139/276/104 143/287/104 144/277/104
f 143/279/105 141/283/105 142/280/105
f 138/275/106 140/274/106 144/282/106
f 137/283/107 139/279/107 140/281/107
f 141/284/108 137/288/108 138/285/108
o Cube.019
v 7.393421 -0.108220 -6.515942
v 7.393421 -14.494200 -6.515941
v 7.393421 -0.108277 5.697845
v 7.393421 -14.494257 5.697845
v 6.453235 -0.108220 -6.515942
v 6.453235 -14.494200 -6.515941
v 6.453235 -0.108277 5.697845
v 6.453235 -14.494257 5.697845
vn -0.0000 1.0000 -0.0000
vn -0.0000 -0.0000 1.0000
vn -1.0000 -0.0000 -0.0000
vn -0.0000 -1.0000 -0.0000
vn 1.0000 -0.0000 -0.0000
vn -0.0000 -0.0000 -1.0000
vt 0.045455 0.000000
vt 0.954545 1.000000
vt 0.954545 0.000000
vt 0.954545 0.506846
vt 0.045455 0.493154
vt 0.954545 0.493154
vt 0.506846 1.000000
vt 0.493154 0.000000
vt 0.493154 1.000000
vt 0.045455 1.000000
vt 0.506846 0.000000
vt 0.045455 0.506846
vt 0.954545 0.493154
vt 0.045455 0.493154
vt 0.045455 0.506846
vt 0.954545 0.506846
s 1
usemtl Material.002
f 149/289/109 147/290/109 145/291/109
f 147/292/110 152/293/110 148/294/110
f 151/295/111 150/296/111 152/297/111
f 146/291/112 152/298/112 150/289/112
f 145/299/113 148/297/113 146/296/113
f 149/300/114 146/301/114 150/302/114
f 149/289/109 151/298/109 147/290/109
f 147/292/110 151/303/110 152/293/110
f 151/295/111 149/299/111 150/296/111
f 146/291/112 148/290/112 152/298/112
f 145/299/113 147/295/113 148/297/113
f 149/300/114 145/304/114 146/301/114
o Cube.020
v 8.393421 -0.108220 -0.741092
v 8.393421 -14.494199 -0.741091
v 8.393421 -0.108277 3.022339
v 8.393421 -14.494257 3.022340
v 7.453235 -0.108220 -0.741092
v 7.453235 -14.494199 -0.741091
v 7.453235 -0.108277 3.022339
v 7.453235 -14.494257 3.022340
vn -0.0000 1.0000 -0.0000
vn -0.0000 -0.0000 1.0000
vn -1.0000 -0.0000 -0.0000
vn -0.0000 -1.0000 -0.0000
vn 1.0000 -0.0000 -0.0000
vn -0.0000 -0.0000 -1.0000
vt 0.045455 0.000000
vt 0.954545 1.000000
vt 0.954545 0.000000
vt 0.954545 0.506846
vt 0.045455 0.493154
vt 0.954545 0.493154
vt 0.506846 1.000000
vt 0.493154 0.000000
vt 0.493154 1.000000
vt 0.045455 1.000000
vt 0.506846 0.000000
vt 0.045455 0.506846
vt 0.954545 0.493154
vt 0.045455 0.493154
vt 0.045455 0.506846
vt 0.954545 0.506846
s 1
usemtl Material.002
f 157/305/115 155/306/115 153/307/115
f 155/308/116 160/309/116 156/310/116
f 159/311/117 158/312/117 160/313/117
f 154/307/118 160/314/118 158/305/118
f 153/315/119 156/313/119 154/312/119
f 157/316/120 154/317/120 158/318/120
f 157/305/115 159/314/115 155/306/115
f 155/308/116 159/319/116 160/309/116
f 159/311/117 157/315/117 158/312/117
f 154/307/118 156/306/118 160/314/118
f 153/315/119 155/311/119 156/313/119
f 157/316/120 153/320/120 154/317/120
o Cube.021
v 8.393421 -0.108220 -3.249112
v 8.393421 -14.494199 -3.249111
v 8.393421 -0.108277 -1.226083
v 8.393421 -14.494257 -1.226082
v 7.453235 -0.108220 -3.249112
v 7.453235 -14.494199 -3.249111
v 7.453235 -0.108277 -1.226083
v 7.453235 -14.494257 -1.226082
vn -0.0000 1.0000 -0.0000
vn -0.0000 -0.0000 1.0000
vn -1.0000 -0.0000 -0.0000
vn -0.0000 -1.0000 -0.0000
vn 1.0000 -0.0000 -0.0000
vn -0.0000 -0.0000 -1.0000
vt 0.045455 0.000000
vt 0.954545 1.000000
vt 0.954545 0.000000
vt 0.954545 0.506846
vt 0.045455 0.493154
vt 0.954545 0.493154
vt 0.506846 1.000000
vt 0.493154 0.000000
vt 0.493154 1.000000
vt 0.045455 1.000000
vt 0.506846 0.000000
vt 0.045455 0.506846
vt 0.954545 0.493154
vt 0.045455 0.493154
vt 0.045455 0.506846
vt 0.954545 0.506846
s 1
usemtl Material.002
f 165/321/121 163/322/121 161/323/121
f 163/324/122 168/325/122 164/326/122
f 167/327/123 166/328/123 168/329/123
f 162/323/124 168/330/124 166/321/124
f 161/331/125 164/329/125 162/328/125
f 165/332/126 162/333/126 166/334/126
f 165/321/121 167/330/121 163/322/121
f 163/324/122 167/335/122 168/325/122
f 167/327/123 165/331/123 166/328/123
f 162/323/124 164/322/124 168/330/124
f 161/331/125 163/327/125 164/329/125
f 165/332/126 161/336/126 162/333/126
o Cube.022
v 9.393421 -0.108220 -2.656640
v 9.393421 -14.494200 -2.656639
v 9.393421 -0.108277 4.937886
v 9.393421 -14.494257 4.937887
v 8.453236 -0.108220 -2.656640
v 8.453236 -14.494200 -2.656639
v 8.453236 -0.108277 4.937886
v 8.453236 -14.494257 4.937887
vn -0.0000 1.0000 -0.0000
vn -0.0000 -0.0000 1.0000
vn -1.0000 -0.0000 -0.0000
vn -0.0000 -1.0000 -0.0000
vn 1.0000 -0.0000 -0.0000
vn -0.0000 -0.0000 -1.0000
vt 0.045455 0.000000
vt 0.954545 1.000000
vt 0.954545 0.000000
vt 0.954545 0.506846
vt 0.045455 0.493154
vt 0.954545 0.493154
vt 0.506846 1.000000
vt 0.493154 0.000000
vt 0.493154 1.000000
vt 0.045455 1.000000
vt 0.506846 0.000000
vt 0.045455 0.506846
vt 0.954545 0.493154
vt 0.045455 0.493154
vt 0.045455 0.506846
vt 0.954545 0.506846
s 1
usemtl Material.002
f 173/337/127 171/338/127 169/339/127
f 171/340/128 176/341/128 172/342/128
f 175/343/129 174/344/129 176/345/129
f 170/339/130 176/346/130 174/337/130
f 169/347/131 172/345/131 170/344/131
f 173/348/132 170/349/132 174/350/132
f 173/337/127 175/346/127 171/338/127
f 171/340/128 175/351/128 176/341/128
f 175/343/129 173/347/129 174/344/129
f 170/339/130 172/338/130 176/346/130
f 169/347/131 171/343/131 172/345/131
f 173/348/132 169/352/132 170/349/132
o Cube.023
v 5.393421 -0.108220 4.898072
v 5.393421 -14.494200 4.898073
v 5.393421 -0.108277 14.063829
v 5.393421 -14.494257 14.063830
v 4.453235 -0.108220 4.898072
v 4.453235 -14.494200 4.898073
v 4.453235 -0.108277 14.063829
v 4.453235 -14.494257 14.063830
vn -0.0000 1.0000 -0.0000
vn -0.0000 -0.0000 1.0000
vn -1.0000 -0.0000 -0.0000
vn -0.0000 -1.0000 -0.0000
vn 1.0000 -0.0000 -0.0000
vn -0.0000 -0.0000 -1.0000
vt 0.045455 0.000000
vt 0.954545 1.000000
vt 0.954545 0.000000
vt 0.954545 0.506846
vt 0.045455 0.493154
vt 0.954545 0.493154
vt 0.506846 1.000000
vt 0.493154 0.000000
vt 0.493154 1.000000
vt 0.045455 1.000000
vt 0.506846 0.000000
vt 0.045455 0.506846
vt 0.954545 0.493154
vt 0.045455 0.493154
vt 0.045455 0.506846
vt 0.954545 0.506846
s 1
usemtl Material.002
f 181/353/133 179/354/133 177/355/133
f 179/356/134 184/357/134 180/358/134
f 183/359/135 182/360/135 184/361/135
f 178/355/136 184/362/136 182/353/136
f 177/363/137 180/361/137 178/360/137
f 181/364/138 178/365/138 182/366/138
f 181/353/133 183/362/133 179/354/133
f 179/356/134 183/367/134 184/357/134
f 183/359/135 181/363/135 182/360/135
f 178/355/136 180/354/136 184/362/136
f 177/363/137 179/359/137 180/361/137
f 181/364/138 177/368/138 178/365/138
o Cube.024
v 5.393421 -0.108220 18.165203
v 5.393421 -14.494199 18.165203
v 5.393421 -0.108277 15.949203
v 5.393421 -14.494257 15.949203
v 4.453235 -0.108220 18.165203
v 4.453235 -14.494199 18.165203
v 4.453235 -0.108277 15.949203
v 4.453235 -14.494257 15.949203
vn -0.0000 1.0000 -0.0000
vn -0.0000 -0.0000 -1.0000
vn -1.0000 -0.0000 -0.0000
vn -0.0000 -1.0000 -0.0000
vn 1.0000 -0.0000 -0.0000
vn -0.0000 -0.0000 1.0000
vt 0.045455 0.000000
vt 0.954545 1.000000
vt 0.954545 0.000000
vt 0.954545 0.506846
vt 0.045455 0.493154
vt 0.954545 0.493154
vt 0.506846 1.000000
vt 0.493154 0.000000
vt 0.493154 1.000000
vt 0.045455 1.000000
vt 0.506846 0.000000
vt 0.045455 0.506846
vt 0.954545 0.493154
vt 0.045455 0.493154
vt 0.045455 0.506846
vt 0.954545 0.506846
s 1
usemtl Material.002
f 189/369/139 185/371/139 187/370/139
f 187/372/140 188/374/140 192/373/140
f 191/375/141 192/377/141 190/376/141
f 186/371/142 190/369/142 192/378/142
f 185/379/143 186/376/143 188/377/143
f 189/380/144 190/382/144 186/381/144
f 189/369/139 187/370/139 191/378/139
f 187/372/140 192/373/140 191/383/140
f 191/375/141 190/376/141 189/379/141
f 186/371/142 192/378/142 188/370/142
f 185/379/143 188/377/143 187/375/143
f 189/380/144 186/381/144 185/384/144
o Cube.025
v 6.393421 -0.108220 11.878304
v 6.393421 -14.494199 11.878304
v 6.393421 -0.108277 17.201031
v 6.393421 -14.494257 17.201031
v 5.453235 -0.108220 11.878304
v 5.453235 -14.494199 11.878304
v 5.453235 -0.108277 17.201031
v 5.453235 -14.494257 17.201031
vn -0.0000 1.0000 -0.0000
vn -0.0000 -0.0000 1.0000
vn -1.0000 -0.0000 -0.0000
vn -0.0000 -1.0000 -0.0000
vn 1.0000 -0.0000 -0.0000
vn -0.0000 -0.0000 -1.0000
vt 0.045455 0.000000
vt 0.954545 1.000000
vt 0.954545 0.000000
vt 0.954545 0.506846
vt 0.045455 0.493154
vt 0.954545 0.493154
vt 0.506846 1.000000
vt 0.493154 0.000000
vt 0.493154 1.000000
vt 0.045455 1.000000
vt 0.506846 0.000000
vt 0.045455 0.506846
vt 0.954545 0.493154
vt 0.045455 0.493154
vt 0.045455 0.506846
vt 0.954545 0.506846
s 1
usemtl Material.002
f 197/385/145 195/386/145 193/387/145
f 195/388/146 200/389/146 196/390/146
f 199/391/147 198/392/147 200/393/147
f 194/387/148 200/394/148 198/385/148
f 193/395/149 196/393/149 194/392/149
f 197/396/150 194/397/150 198/398/150
f 197/385/145 199/394/145 195/386/145
f 195/388/146 199/399/146 200/389/146
f 199/391/147 197/395/147 198/392/147
f 194/387/148 196/386/148 200/394/148
f 193/395/149 195/391/149 196/393/149
f 197/396/150 193/400/150 194/397/150
o Cube.026
v 6.393421 -0.108220 4.905265
v 6.393421 -14.494199 4.905266
v 6.393421 -0.108277 10.227992
v 6.393421 -14.494257 10.227993
v 5.453235 -0.108220 4.905265
v 5.453235 -14.494199 4.905266
v 5.453235 -0.108277 10.227992
v 5.453235 -14.494257 10.227993
vn -0.0000 1.0000 -0.0000
vn -0.0000 -0.0000 1.0000
vn -1.0000 -0.0000 -0.0000
vn -0.0000 -1.0000 -0.0000
vn 1.0000 -0.0000 -0.0000
vn -0.0000 -0.0000 -1.0000
vt 0.045455 0.000000
vt 0.954545 1.000000
vt 0.954545 0.000000
vt 0.954545 0.506846
vt 0.045455 0.493154
vt 0.954545 0.493154
vt 0.506846 1.000000
vt 0.493154 0.000000
vt 0.493154 1.000000
vt 0.045455 1.000000
vt 0.506846 0.000000
vt 0.045455 0.506846
vt 0.954545 0.493154
vt 0.045455 0.493154
vt 0.045455 0.506846
vt 0.954545 0.506846
s 1
usemtl Material.002
f 205/401/151 203/402/151 201/403/151
f 203/404/152 208/405/152 204/406/152
f 207/407/153 206/408/153 208/409/153
f 202/403/154 208/410/154 206/401/154
f 201/411/155 204/409/155 202/408/155
f 205/412/156 202/413/156 206/414/156
f 205/401/151 207/410/151 203/402/151
f 203/404/152 207/415/152 208/405/152
f 207/407/153 205/411/153 206/408/153
f 202/403/154 204/402/154 208/410/154
f 201/411/155 203/407/155 204/409/155
f 205/412/156 201/416/156 202/413/156
o Cube.027
v 7.393421 -0.108220 6.654573
v 7.393421 -14.494200 6.654574
v 7.393421 -0.108277 18.868359
v 7.393421 -14.494257 18.868361
v 6.453235 -0.108220 6.654573
v 6.453235 -14.494200 6.654574
v 6.453235 -0.108277 18.868359
v 6.453235 -14.494257 18.868361
vn -0.0000 1.0000 -0.0000
vn -0.0000 -0.0000 1.0000
vn -1.0000 -0.0000 -0.0000
vn -0.0000 -1.0000 -0.0000
vn 1.0000 -0.0000 -0.0000
vn -0.0000 -0.0000 -1.0000
vt 0.045455 0.000000
vt 0.954545 1.000000
vt 0.954545 0.000000
vt 0.954545 0.506846
vt 0.045455 0.493154
vt 0.954545 0.493154
vt 0.506846 1.000000
vt 0.493154 0.000000
vt 0.493154 1.000000
vt 0.045455 1.000000
vt 0.506846 0.000000
vt 0.045455 0.506846
vt 0.954545 0.493154
vt 0.045455 0.493154
vt 0.045455 0.506846
vt 0.954545 0.506846
s 1
usemtl Material.002
f 213/417/157 211/418/157 209/419/157
f 211/420/158 216/421/158 212/422/158
f 215/423/159 214/424/159 216/425/159
f 210/419/160 216/426/160 214/417/160
f 209/427/161 212/425/161 210/424/161
f 213/428/162 210/429/162 214/430/162
f 213/417/157 215/426/157 211/418/157
f 211/420/158 215/431/158 216/421/158
f 215/423/159 213/427/159 214/424/159
f 210/419/160 212/418/160 216/426/160
f 209/427/161 211/423/161 212/425/161
f 213/428/162 209/432/162 210/429/162
o Cube.028
v 8.393421 -0.108220 4.611937
v 8.393421 -14.494199 4.611938
v 8.393421 -0.108277 8.375368
v 8.393421 -14.494257 8.375370
v 7.453235 -0.108220 4.611937
v 7.453235 -14.494199 4.611938
v 7.453235 -0.108277 8.375368
v 7.453235 -14.494257 8.375370
vn -0.0000 1.0000 -0.0000
vn -0.0000 -0.0000 1.0000
vn -1.0000 -0.0000 -0.0000
vn -0.0000 -1.0000 -0.0000
vn 1.0000 -0.0000 -0.0000
vn -0.0000 -0.0000 -1.0000
vt 0.045455 0.000000
vt 0.954545 1.000000
vt 0.954545 0.000000
vt 0.954545 0.506846
vt 0.045455 0.493154
vt 0.954545 0.493154
vt 0.506846 1.000000
vt 0.493154 0.000000
vt 0.493154 1.000000
vt 0.045455 1.000000
vt 0.506846 0.000000
vt 0.045455 0.506846
vt 0.954545 0.493154
vt 0.045455 0.493154
vt 0.045455 0.506846
vt 0.954545 0.506846
s 1
usemtl Material.002
f 221/433/163 219/434/163 217/435/163
f 219/436/164 224/437/164 220/438/164
f 223/439/165 222/440/165 224/441/165
f 218/435/166 224/442/166 222/433/166
f 217/443/167 220/441/167 218/440/167
f 221/444/168 218/445/168 222/446/168
f 221/433/163 223/442/163 219/434/163
f 219/436/164 223/447/164 224/437/164
f 223/439/165 221/443/165 222/440/165
f 218/435/166 220/434/166 224/442/166
f 217/443/167 219/439/167 220/441/167
f 221/444/168 217/448/168 218/445/168
o Cube.029
v 8.393421 -0.108220 10.329046
v 8.393421 -14.494200 10.329046
v 8.393421 -0.108277 20.544935
v 8.393421 -14.494257 20.544935
v 7.453235 -0.108220 10.329046
v 7.453235 -14.494200 10.329046
v 7.453235 -0.108277 20.544935
v 7.453235 -14.494257 20.544935
vn -0.0000 1.0000 -0.0000
vn -0.0000 -0.0000 1.0000
vn -1.0000 -0.0000 -0.0000
vn -0.0000 -1.0000 -0.0000
vn 1.0000 -0.0000 -0.0000
vn -0.0000 -0.0000 -1.0000
vt 0.045455 0.000000
vt 0.954545 1.000000
vt 0.954545 0.000000
vt 0.954545 0.506846
vt 0.045455 0.493154
vt 0.954545 0.493154
vt 0.506846 1.000000
vt 0.493154 0.000000
vt 0.493154 1.000000
vt 0.045455 1.000000
vt 0.506846 0.000000
vt 0.045455 0.506846
vt 0.954545 0.493154
vt 0.045455 0.493154
vt 0.045455 0.506846
vt 0.954545 0.506846
s 1
usemtl Material.002
f 229/449/169 227/450/169 225/451/169
f 227/452/170 232/453/170 228/454/170
f 231/455/171 230/456/171 232/457/171
f 226/451/172 232/458/172 230/449/172
f 225/459/173 228/457/173 226/456/173
f 229/460/174 226/461/174 230/462/174
f 229/449/169 231/458/169 227/450/169
f 227/452/170 231/463/170 232/453/170
f 231/455/171 229/459/171 230/456/171
f 226/451/172 228/450/172 232/458/172
f 225/459/173 227/455/173 228/457/173
f 229/460/174 225/464/174 226/461/174
o Cube.030
v 9.393421 -0.108220 6.955317
v 9.393421 -14.494200 6.955317
v 9.393421 -0.108277 14.549842
v 9.393421 -14.494257 14.549843
v 8.453236 -0.108220 6.955317
v 8.453236 -14.494200 6.955317
v 8.453236 -0.108277 14.549842
v 8.453236 -14.494257 14.549843
vn -0.0000 1.0000 -0.0000
vn -0.0000 -0.0000 1.0000
vn -1.0000 -0.0000 -0.0000
vn -0.0000 -1.0000 -0.0000
vn 1.0000 -0.0000 -0.0000
vn -0.0000 -0.0000 -1.0000
vt 0.045455 0.000000
vt 0.954545 1.000000
vt 0.954545 0.000000
vt 0.954545 0.506846
vt 0.045455 0.493154
vt 0.954545 0.493154
vt 0.506846 1.000000
vt 0.493154 0.000000
vt 0.493154 1.000000
vt 0.045455 1.000000
vt 0.506846 0.000000
vt 0.045455 0.506846
vt 0.954545 0.493154
vt 0.045455 0.493154
vt 0.045455 0.506846
vt 0.954545 0.506846
s 1
usemtl Material.002
f 237/465/175 235/466/175 233/467/175
f 235/468/176 240/469/176 236/470/176
f 239/471/177 238/472/177 240/473/177
f 234/467/178 240/474/178 238/465/178
f 233/475/179 236/473/179 234/472/179
f 237/476/180 234/477/180 238/478/180
f 237/465/175 239/474/175 235/466/175
f 235/468/176 239/479/176 240/469/176
f 239/471/177 237/475/177 238/472/177
f 234/467/178 236/466/178 240/474/178
f 233/475/179 235/471/179 236/473/179
f 237/476/180 233/480/180 234/477/180
o Cube.031
v 9.393421 -0.108220 17.398281
v 9.393421 -14.494199 17.398281
v 9.393421 -0.108277 16.036617
v 9.393421 -14.494257 16.036617
v 8.453236 -0.108220 17.398281
v 8.453236 -14.494199 17.398281
v 8.453236 -0.108277 16.036617
v 8.453236 -14.494257 16.036617
vn -0.0000 1.0000 -0.0000
vn -0.0000 -0.0000 -1.0000
vn -1.0000 -0.0000 -0.0000
vn -0.0000 -1.0000 -0.0000
vn 1.0000 -0.0000 -0.0000
vn -0.0000 -0.0000 1.0000
vt 0.045455 0.000000
vt 0.954545 1.000000
vt 0.954545 0.000000
vt 0.954545 0.506846
vt 0.045455 0.493154
vt 0.954545 0.493154
vt 0.506846 1.000000
vt 0.493154 0.000000
vt 0.493154 1.000000
vt 0.045455 1.000000
vt 0.506846 0.000000
vt 0.045455 0.506846
vt 0.954545 0.493154
vt 0.045455 0.493154
vt 0.045455 0.506846
vt 0.954545 0.506846
s 1
usemtl Material.002
f 245/481/181 241/483/181 243/482/181
f 243/484/182 244/486/182 248/485/182
f 247/487/183 248/489/183 246/488/183
f 242/483/184 246/481/184 248/490/184
f 241/491/185 242/488/185 244/489/185
f 245/492/186 246/494/186 242/493/186
f 245/481/181 243/482/181 247/490/181
f 243/484/182 248/485/182 247/495/182
f 247/487/183 246/488/183 245/491/183
f 242/483/184 248/490/184 244/482/184
f 241/491/185 244/489/185 243/487/185
f 245/492/186 242/493/186 241/496/186
o Cube.032
v 10.393421 -0.108220 2.895321
v 10.393421 -14.494200 2.895322
v 10.393421 -0.108277 14.964211
v 10.393421 -14.494257 14.964212
v 9.453236 -0.108220 2.895321
v 9.453236 -14.494200 2.895322
v 9.453236 -0.108277 14.964211
v 9.453236 -14.494257 14.964212
vn -0.0000 1.0000 -0.0000
vn -0.0000 -0.0000 1.0000
vn -1.0000 -0.0000 -0.0000
vn -0.0000 -1.0000 -0.0000
vn 1.0000 -0.0000 -0.0000
vn -0.0000 -0.0000 -1.0000
vt 0.045455 0.000000
vt 0.954545 1.000000
vt 0.954545 0.000000
vt 0.954545 0.506846
vt 0.045455 0.493154
vt 0.954545 0.493154
vt 0.506846 1.000000
vt 0.493154 0.000000
vt 0.493154 1.000000
vt 0.045455 1.000000
vt 0.506846 0.000000
vt 0.045455 0.506846
vt 0.954545 0.493154
vt 0.045455 0.493154
vt 0.045455 0.506846
vt 0.954545 0.506846
s 1
usemtl Material.002
f 253/497/187 251/498/187 249/499/187
f 251/500/188 256/501/188 252/502/188
f 255/503/189 254/504/189 256/505/189
f 250/499/190 256/506/190 254/497/190
f 249/507/191 252/505/191 250/504/191
f 253/508/192 250/509/192 254/510/192
f 253/497/187 255/506/187 251/498/187
f 251/500/188 255/511/188 256/501/188
f 255/503/189 253/507/189 254/504/189
f 250/499/190 252/498/190 256/506/190
f 249/507/191 251/503/191 252/505/191
f 253/508/192 249/512/192 250/509/192
