# Blender 4.4.1
# www.blender.org
mtllib ACOGLens.mtl
o ACOLens
v -0.000276 1.331101 -10.126230
v 1.540751 0.030080 -10.126230
v 0.991643 0.955480 -10.126230
v 0.983910 -0.952976 -10.126230
v 0.012850 -1.538785 -10.126230
v -0.024682 -1.538785 -10.126230
v -0.866314 -1.084515 -10.126230
v -1.535599 -0.020874 -10.126230
v -0.985365 0.903428 -10.126230
vn -0.0000 -0.0000 -1.0000
vt 0.821141 0.206133
vt 0.181007 0.809576
vt 0.508861 1.000000
vt 0.782442 0.852335
vt 1.000000 0.506587
vt 0.500927 0.067113
vt 0.178493 0.189213
vt 0.000000 0.490024
vt 0.496660 1.000000
s 1
usemtl mat2
f 9/1/1 4/2/1 6/3/1
f 7/4/1 8/5/1 9/1/1
f 9/1/1 1/6/1 3/7/1
f 3/7/1 2/8/1 4/2/1
f 4/2/1 5/9/1 6/3/1
f 6/3/1 7/4/1 9/1/1
f 9/1/1 3/7/1 4/2/1
